<svg width="96" height="41" viewBox="0 0 96 41" fill="none" xmlns="http://www.w3.org/2000/svg">
<path d="M29.7189 19.0882C29.7189 24.9359 24.9784 29.6765 19.1307 29.6765C13.283 29.6765 8.54248 24.9359 8.54248 19.0882C8.54248 13.2405 13.283 8.5 19.1307 8.5C24.9784 8.5 29.7189 13.2405 29.7189 19.0882Z" stroke="#000001" stroke-width="1.5" stroke-linecap="round" stroke-linejoin="round"/>
<path d="M32.5424 32.5L26.6176 26.5753" stroke="#000001" stroke-width="1.5" stroke-linecap="round" stroke-linejoin="round"/>
<path d="M64.5425 8.5H66.6305C67.9265 8.5 68.9465 9.616 68.8385 10.9L67.8425 22.852C67.6745 24.808 69.2225 26.488 71.1905 26.488H83.9705C85.6985 26.488 87.2105 25.072 87.3425 23.356L87.9905 14.356C88.1345 12.364 86.6225 10.744 84.6185 10.744H69.1265" stroke="#000001" stroke-width="1.5" stroke-miterlimit="10" stroke-linecap="round" stroke-linejoin="round"/>
<path d="M81.6425 32.5C82.4709 32.5 83.1425 31.8284 83.1425 31C83.1425 30.1716 82.4709 29.5 81.6425 29.5C80.8141 29.5 80.1425 30.1716 80.1425 31C80.1425 31.8284 80.8141 32.5 81.6425 32.5Z" stroke="#000001" stroke-width="1.5" stroke-miterlimit="10" stroke-linecap="round" stroke-linejoin="round"/>
<path d="M72.0425 32.5C72.8709 32.5 73.5425 31.8284 73.5425 31C73.5425 30.1716 72.8709 29.5 72.0425 29.5C71.2141 29.5 70.5425 30.1716 70.5425 31C70.5425 31.8284 71.2141 32.5 72.0425 32.5Z" stroke="#000001" stroke-width="1.5" stroke-miterlimit="10" stroke-linecap="round" stroke-linejoin="round"/>
<path d="M72.9425 15.7H87.3425" stroke="#000001" stroke-width="1.5" stroke-miterlimit="10" stroke-linecap="round" stroke-linejoin="round"/>
</svg>
